# xmcd
#
# Track frame offsets:
#  150
#  21622
#  47830
#  67630
#  94280
#  116415
#  178365
#  197577
#  249760
#  274017
#  312932
#
# Disc length: 4509 seconds
#
# Revision: 7
# Processed by: cddbd v1.5.1PL0 Copyright (c) Steve Scherf et al.
# Submitted via: Collectorz.com Music Collector 6.9
#
DISCID=95119b0b
DTITLE=John Coltrane - The Very Best of
DYEAR=2000
DGENRE=Jazz
TTITLE0=Giant Steps
TTITLE1=Cousin Mary
TTITLE2=Naima
TTITLE3=Like Sonny
TTITLE4=johnny mercer/harold arlen - My Shining Hour
TTITLE5=rogers and  hammerstein - My Favorite Things
TTITLE6=Central Park West
TTITLE7=dubose heywood/george gershwin - Summertime
TTITLE8=Mr. Syms
TTITLE9=Equinox
TTITLE10=green/sour/heyman/eyton - Body And Soul
EXTD=
EXTT0=
EXTT1=
EXTT2=
EXTT3=
EXTT4=
EXTT5=
EXTT6=
EXTT7=
EXTT8=
EXTT9=
EXTT10=
PLAYORDER=
